<mxfile host="drawio-plugin" modified="2024-04-07T13:56:32.949Z" agent="5.0 (Windows NT 10.0; Win64; x64) AppleWebKit/537.36 (KHTML, like Gecko) Chrome/122.0.0.0 Safari/537.36" etag="Q5IL2nuZweEsyticEuyf" version="20.5.3" type="embed"><diagram id="23iRSUPoRavnBvh4doch" name="Page-1"><mxGraphModel dx="1573" dy="677" grid="1" gridSize="10" guides="1" tooltips="1" connect="1" arrows="1" fold="1" page="1" pageScale="1" pageWidth="827" pageHeight="1169" math="0" shadow="0"><root><mxCell id="0"/><mxCell id="1" parent="0"/><mxCell id="6" style="edgeStyle=orthogonalEdgeStyle;rounded=0;orthogonalLoop=1;jettySize=auto;html=1;" edge="1" parent="1" source="2" target="3"><mxGeometry relative="1" as="geometry"/></mxCell><mxCell id="2" value="Environment&lt;br&gt;(执行环境)" style="rounded=1;whiteSpace=wrap;html=1;" vertex="1" parent="1"><mxGeometry x="75" y="280" width="120" height="60" as="geometry"/></mxCell><mxCell id="7" style="edgeStyle=orthogonalEdgeStyle;rounded=0;orthogonalLoop=1;jettySize=auto;html=1;entryX=0;entryY=0.5;entryDx=0;entryDy=0;" edge="1" parent="1" source="3" target="4"><mxGeometry relative="1" as="geometry"/></mxCell><mxCell id="3" value="source&lt;br&gt;(数据源)" style="rounded=1;whiteSpace=wrap;html=1;" vertex="1" parent="1"><mxGeometry x="265" y="280" width="120" height="60" as="geometry"/></mxCell><mxCell id="8" style="edgeStyle=orthogonalEdgeStyle;rounded=0;orthogonalLoop=1;jettySize=auto;html=1;" edge="1" parent="1" source="4" target="5"><mxGeometry relative="1" as="geometry"/></mxCell><mxCell id="4" value="Transformation&lt;br&gt;(转换操作)" style="rounded=1;whiteSpace=wrap;html=1;fillColor=#f8cecc;strokeColor=#b85450;" vertex="1" parent="1"><mxGeometry x="445" y="280" width="120" height="60" as="geometry"/></mxCell><mxCell id="5" value="Sink&lt;br&gt;(输出)" style="rounded=1;whiteSpace=wrap;html=1;" vertex="1" parent="1"><mxGeometry x="632" y="280" width="120" height="60" as="geometry"/></mxCell></root></mxGraphModel></diagram></mxfile>